<svg xmlns="http://www.w3.org/2000/svg" xml:space="preserve"
    style="fill-rule:evenodd;clip-rule:evenodd;stroke-linejoin:round;stroke-miterlimit:2"
    viewBox="0 0 2134 2134">
  <path d="M.352.01a.376.376 0 0 1-.157-.03.228.228 0 0 1-.103-.091.302.302 0 0 1-.04-.152L.051-.348l.001-.087a.308.308 0 0 1 .041-.152.238.238 0 0 1 .104-.092.357.357 0 0 1 .155-.031c.058 0 .11.01.154.031a.246.246 0 0 1 .105.092.298.298 0 0 1 .04.152c.002.029.002.058.002.087 0 .028 0 .056-.002.085a.31.31 0 0 1-.04.153.231.231 0 0 1-.103.09.374.374 0 0 1-.156.03Zm0-.129a.133.133 0 0 0 .096-.036c.025-.023.038-.061.039-.113.002-.03.002-.057.002-.083 0-.025 0-.052-.002-.081a.19.19 0 0 0-.019-.085.111.111 0 0 0-.048-.048.134.134 0 0 0-.068-.016.14.14 0 0 0-.069.016.111.111 0 0 0-.048.048.19.19 0 0 0-.019.085l-.001.081.001.083c.002.052.015.09.04.113a.133.133 0 0 0 .096.036Z" style="fill:#46702d;fill-rule:nonzero" transform="matrix(1082.43 0 0 925.20812 -52.582 2125.821)"/>
  <path d="M.099 0a.024.024 0 0 1-.018-.007.024.024 0 0 1-.007-.018v-.65c0-.007.002-.013.007-.018A.024.024 0 0 1 .099-.7h.265c.083 0 .149.019.197.058.048.038.072.093.072.165 0 .049-.012.09-.035.122a.213.213 0 0 1-.094.073l.141.25a.026.026 0 0 1 .003.011A.02.02 0 0 1 .627 0H.516C.504 0 .495-.003.489-.009a.068.068 0 0 1-.013-.018L.354-.256H.233v.231a.024.024 0 0 1-.007.018A.024.024 0 0 1 .208 0H.099Zm.134-.383h.128c.037 0 .063-.008.081-.025a.091.091 0 0 0 .027-.07.097.097 0 0 0-.026-.071C.425-.567.398-.575.361-.575H.233v.192Z" style="fill:#46702d;fill-rule:nonzero" transform="matrix(1082.43 0 0 925.20812 708.369 2125.821)"/>
  <path d="M.099 0a.024.024 0 0 1-.018-.007.024.024 0 0 1-.007-.018v-.65c0-.007.002-.013.007-.018A.024.024 0 0 1 .099-.7h.106c.008 0 .014.002.018.007a.024.024 0 0 1 .007.018v.228l.206-.234A.058.058 0 0 1 .45-.693C.456-.698.464-.7.475-.7h.121a.02.02 0 0 1 .021.021c0 .005-.001.009-.004.012l-.257.302.276.332c.003.003.004.007.004.012A.02.02 0 0 1 .615 0H.49a.041.041 0 0 1-.027-.008.17.17 0 0 1-.012-.011L.23-.275v.25a.024.024 0 0 1-.007.018C.219-.002.213 0 .205 0H.099Z" style="fill:#46702d;fill-rule:nonzero" transform="matrix(1082.43 0 0 925.20812 1446.62 2125.821)"/>
  <path d="M498.241 6.965c72.533-1.353 145.234-.632 217.78-.663 41.286-.018 86.081-3.374 126.879 2.219 13.235 1.813 27.126 4.696 37.3 13.998 12.989 11.868 18.289 29.31 19.521 46.39 2.859 39.59 1.122 80.528 1.218 120.268.075 30.985 2.499 64.186-1.187 94.862-1.311 10.916-4.122 27.948-11.943 36.234-23.959 25.383-130.12 16.368-164.794 16.01-17.938-.186-44.822-2.096-57.516-16.7-17.111-19.68-12.061-61.343-11.732-85.984l-106.042.005c-23.743 107.834-33.777 214.793-28.736 325.029-33.073 22.16-63.806 46.27-88.267 78.065-10.139 13.184-30.623 38.807-26.022 56.479 1.917 7.375 9.998 15.683 16.864 18.743 6.682 2.971 10.631 2.418 16.561-1.964 15.443-11.394 27.034-29.504 39.161-44.192a268.099 268.099 0 0 1 24.676-26.162 268.494 268.494 0 0 1 27.931-22.62c4.9-3.451 9.91-6.734 15.03-9.846a266.015 266.015 0 0 1 15.655-8.817 267.157 267.157 0 0 1 32.889-14.383c85.469-31.197 184.909-23.849 266.6 14.918 81.819 38.83 155.923 102.313 183.81 191.639 5.041 16.152 6.976 54.596 11.107 62.652 2.546 4.97 6.039 7.331 11.432 8.312 8.383 1.53 15.571-3.992 17.075-12.106 2.573-13.888 1.526-28.315 4.469-42.446 11.111-53.358 44.985-104.439 84.251-141.207 75.239-70.456 175.677-102.825 277.387-99.023 70.773 2.644 144.446 30.888 195.153 81.518 16.944 16.912 30.109 37.163 46.639 54.296 6.33 6.561 14.955 11.438 24.329 10.425 5.357-.579 9.488-3.501 12.813-7.587 5.921-7.269 6.462-18.234 4.61-27.019-10.135-48.07-79-95.225-117.62-119.339 8.701-109.904-7.767-218.141-30.315-325.295l-99.664.182c.312 21.877 3.669 46.588-1.975 67.816-3.268 12.305-8.85 19.759-20.071 25.724-8.696 4.62-18.329 7.189-28.045 8.467-29.41 3.882-139.877 4.067-165.186-4.665-9.559-3.298-20.036-8.188-24.298-17.995-4.469-10.285-6.462-23.628-7.364-34.788-2.876-35.664-4.935-208.285 3.783-231.348 5.349-14.153 15.835-27.236 29.955-33.253 10.79-4.599 23.308-6.014 34.947-6.717 54.996-3.302 111.307-.38 166.492-.548 58.885-.185 119.484-3.4 178.193.128 11.797.708 25.252 2.154 36.139 6.805 11.494 4.908 22.525 21.864 29.255 32.277 19.834 30.676 35.893 65.234 53.241 97.444l82.241 150.059a19723.42 19723.42 0 0 1 109.5 202.537c21.914 41.531 45.578 83.521 62.28 127.453-8.621 43.038-24.127 86.713-38.95 127.979-38.334 106.716-83.077 208.13-147.116 301.9-37.943 55.507-80.064 106.574-128.709 152.991-84.823 80.934-215.743 166.905-330.358 191.466-18.831 4.032-38.4 5.332-54.957-6.261-17.229-12.062-25.833-34.854-28.881-54.976-3.132-20.675-.788-41.234 15.958-55.361 22.275-18.787 59.971-25.476 86.86-36.543 95.195-39.179 190.245-110.908 250.238-195.317-93.731 6.641-190.228 3.868-264.244-62.329-16.274-14.556-28.991-41.54-47.579-51.355-6.647-3.511-16.816-4.444-23.661-1.062-5.357 2.649-8.63 8.167-10.38 13.707-3.911 12.371-.968 26.493 5.652 37.379 28.71 47.199 92.103 87.252 144.719 100.605-28.318 29.222-57.961 58.12-91.188 81.66-113.616 80.501-247.876 110.111-385.007 85.55-101.182-18.128-235.758-82.407-295.865-169.168 29.651-6.894 56.857-18.336 82.109-35.527 21.303-14.507 68.944-49.865 72.951-76.203 1.232-8.083-1.68-15.347-6.875-21.405-5.379-6.274-12.228-10.766-20.726-10.775-21.734-.026-41.404 29.726-55.665 43.79-71.895 70.92-175.131 67.379-268.382 66.384 49.085 76.283 163.066 154.326 245.408 193.902 25.042 12.035 53.312 17.934 77.535 31.255 15.153 8.335 28.279 19.702 32.946 37.021 5.194 19.278-2.318 47.937-12.026 64.947-6.902 12.092-17.155 21.285-30.755 24.826-50.84 13.247-185.152-59.72-230.04-87.416-30.988-19.123-61.642-39.033-89.705-62.351-182.275-151.47-310.446-398.509-364.8-626.979 22.213-59.397 56.54-117.097 86.815-172.798L302.7 261.773a16263.698 16263.698 0 0 1 84.436-153.769c14.335-25.879 29.242-61.118 49.155-82.624C453.08 7.248 475.46 7.836 498.241 6.965Z" style="fill:#46702d;fill-rule:nonzero"/>
</svg>