<svg xmlns="http://www.w3.org/2000/svg" xml:space="preserve" style="fill-rule:evenodd;clip-rule:evenodd;stroke-linejoin:round;stroke-miterlimit:2" viewBox="0 0 417 105">
  <path d="M28.294.144c5.329-.101 10.67-.047 16-.049 3.034-.002 6.325-.252 9.322.165.973.135 1.993.349 2.741 1.042.954.884 1.344 2.183 1.434 3.455.21 2.948.082 5.996.09 8.955.005 2.307.183 4.78-.088 7.064-.096.813-.303 2.081-.877 2.698-1.76 1.89-9.56 1.219-12.108 1.192-1.318-.014-3.293-.156-4.225-1.243-1.258-1.466-.887-4.568-.862-6.403H31.93c-1.745 8.03-2.482 15.995-2.112 24.203-2.43 1.65-4.688 3.446-6.485 5.813-.745.982-2.25 2.89-1.912 4.206.141.549.735 1.168 1.239 1.395.491.222.782.181 1.217-.146 1.135-.848 1.986-2.197 2.877-3.29a19.94 19.94 0 0 1 2.812-2.826 19.563 19.563 0 0 1 5.724-3.268c6.28-2.323 13.586-1.776 19.588 1.111 6.011 2.892 11.455 7.619 13.504 14.27.371 1.203.513 4.066.816 4.666.187.37.444.545.84.619.616.113 1.144-.298 1.255-.902.189-1.034.112-2.108.328-3.161.816-3.973 3.305-7.776 6.19-10.514 5.528-5.247 12.907-7.657 20.38-7.374 5.2.197 10.613 2.3 14.338 6.07 1.245 1.26 2.212 2.767 3.427 4.043.465.489 1.098.852 1.787.777.394-.044.697-.261.941-.565.435-.542.475-1.358.339-2.012-.744-3.58-5.804-7.091-8.641-8.887.639-8.184-.571-16.243-2.228-24.222l-7.322.013c.023 1.629.269 3.469-.145 5.05-.24.916-.65 1.471-1.475 1.915-.639.344-1.346.536-2.06.631-2.161.289-10.277.303-12.137-.347-.702-.246-1.472-.61-1.785-1.34-.328-.766-.475-1.76-.541-2.591-.211-2.656-.363-15.51.278-17.227.393-1.054 1.163-2.028 2.201-2.476.793-.342 1.712-.448 2.567-.5 4.041-.246 8.178-.028 12.233-.041 4.326-.014 8.778-.253 13.092.01.866.052 1.855.16 2.655.506.844.366 1.655 1.628 2.149 2.404 1.457 2.284 2.637 4.857 3.912 7.256l6.042 11.174a1470.317 1470.317 0 0 1 8.045 15.081c1.61 3.093 3.349 6.22 4.576 9.491-.633 3.205-1.773 6.457-2.862 9.53-2.816 7.946-6.103 15.498-10.808 22.48-2.788 4.134-5.883 7.936-9.457 11.393-6.232 6.026-15.851 12.428-24.271 14.257-1.384.3-2.822.397-4.038-.466-1.266-.899-1.898-2.596-2.122-4.094-.23-1.54-.058-3.071 1.172-4.122 1.637-1.399 4.407-1.898 6.382-2.722 6.994-2.917 13.978-8.258 18.385-14.544-6.886.495-13.976.288-19.414-4.641-1.196-1.084-2.13-3.093-3.496-3.824-.488-.261-1.235-.331-1.738-.079-.394.197-.634.608-.763 1.021-.287.921-.071 1.972.416 2.783 2.109 3.515 6.766 6.497 10.632 7.491-2.08 2.176-4.258 4.328-6.699 6.081-8.348 5.995-18.212 8.199-28.287 6.371-7.434-1.35-17.322-6.137-21.738-12.597 2.179-.514 4.178-1.366 6.033-2.646 1.565-1.08 5.065-3.713 5.36-5.674.09-.602-.124-1.143-.505-1.594-.396-.467-.899-.802-1.523-.802-1.597-.002-3.042 2.213-4.09 3.26-5.282 5.281-12.867 5.018-19.718 4.944 3.606 5.68 11.98 11.491 18.03 14.438 1.84.896 3.917 1.336 5.697 2.328 1.113.62 2.077 1.467 2.42 2.756.382 1.436-.17 3.57-.883 4.836-.507.901-1.261 1.585-2.26 1.849-3.735.987-13.603-4.447-16.901-6.509-2.277-1.424-4.529-2.907-6.591-4.643C13.41 81.617 3.993 63.221 0 46.209c1.632-4.423 4.154-8.72 6.378-12.867l7.549-14.224a1225.57 1225.57 0 0 1 6.204-11.45c1.053-1.927 2.148-4.551 3.611-6.153C24.976.165 26.62.209 28.294.144Z" style="fill:#46702d;fill-rule:nonzero"/>
  <path d="M.352.01a.376.376 0 0 1-.157-.03.228.228 0 0 1-.103-.091.302.302 0 0 1-.04-.152L.051-.348l.001-.087a.308.308 0 0 1 .041-.152.238.238 0 0 1 .104-.092.357.357 0 0 1 .155-.031c.058 0 .11.01.154.031a.246.246 0 0 1 .105.092.298.298 0 0 1 .04.152c.002.029.002.058.002.087 0 .028 0 .056-.002.085a.31.31 0 0 1-.04.153.231.231 0 0 1-.103.09.374.374 0 0 1-.156.03Zm0-.129a.133.133 0 0 0 .096-.036c.025-.023.038-.061.039-.113.002-.03.002-.057.002-.083 0-.025 0-.052-.002-.081a.19.19 0 0 0-.019-.085.111.111 0 0 0-.048-.048.134.134 0 0 0-.068-.016.14.14 0 0 0-.069.016.111.111 0 0 0-.048.048.19.19 0 0 0-.019.085l-.001.081.001.083c.002.052.015.09.04.113a.133.133 0 0 0 .096.036Z" style="fill:#46702d;fill-rule:nonzero" transform="matrix(134.949 0 0 116.90645 143.867 93.001)"/>
  <path d="M.099 0a.024.024 0 0 1-.018-.007.024.024 0 0 1-.007-.018v-.65c0-.007.002-.013.007-.018A.024.024 0 0 1 .099-.7h.265c.083 0 .149.019.197.058.048.038.072.093.072.165 0 .049-.012.09-.035.122a.213.213 0 0 1-.094.073l.141.25a.026.026 0 0 1 .003.011A.02.02 0 0 1 .627 0H.516C.504 0 .495-.003.489-.009a.068.068 0 0 1-.013-.018L.354-.256H.233v.231a.024.024 0 0 1-.007.018A.024.024 0 0 1 .208 0H.099Zm.134-.383h.128c.037 0 .063-.008.081-.025a.091.091 0 0 0 .027-.07.097.097 0 0 0-.026-.071C.425-.567.398-.575.361-.575H.233v.192Z" style="fill:#46702d;fill-rule:nonzero" transform="matrix(134.949 0 0 116.90645 238.737 93.001)"/>
  <path d="M.099 0a.024.024 0 0 1-.018-.007.024.024 0 0 1-.007-.018v-.65c0-.007.002-.013.007-.018A.024.024 0 0 1 .099-.7h.106c.008 0 .014.002.018.007a.024.024 0 0 1 .007.018v.228l.206-.234A.058.058 0 0 1 .45-.693C.456-.698.464-.7.475-.7h.121a.02.02 0 0 1 .021.021c0 .005-.001.009-.004.012l-.257.302.276.332c.003.003.004.007.004.012A.02.02 0 0 1 .615 0H.49a.041.041 0 0 1-.027-.008.17.17 0 0 1-.012-.011L.23-.275v.25a.024.024 0 0 1-.007.018C.219-.002.213 0 .205 0H.099Z" style="fill:#46702d;fill-rule:nonzero" transform="matrix(134.949 0 0 116.90645 330.776 93.001)"/>
</svg>